<svg width="101" height="71" viewBox="0 0 101 71" fill="none" xmlns="http://www.w3.org/2000/svg">
<ellipse cx="50.5153" cy="35.1033" rx="49.7828" ry="35.1033" fill="white" fill-opacity="0.06"/>
<g clip-path="url(#clip0_1018_2)">
<path d="M51.7131 23.9017H50.5152V18.0166H44.6388V19.2145C44.6388 20.7421 43.3976 21.9834 41.8699 21.9834C40.3422 21.9834 39.1009 20.7421 39.1009 19.2145V18.0166H33.2158V23.893H32.018C30.4903 23.9017 29.249 25.143 29.249 26.6706C29.249 28.1983 30.4903 29.4396 32.018 29.4396H33.2158V35.316H39.0922V34.1182C39.0922 32.5905 40.3335 31.3492 41.8612 31.3492C43.3889 31.3492 44.6301 32.5905 44.6301 34.1182V35.316H50.5152V29.4396H51.7131C53.2408 29.4396 54.482 28.1983 54.482 26.6706C54.482 25.143 53.2495 23.9017 51.7131 23.9017Z" fill="#D9D9D9"/>
<path d="M61.9299 36.5119V35.3141H67.8064V29.4376H66.6085C65.0808 29.4376 63.8396 28.1964 63.8396 26.6687C63.8396 25.141 65.0808 23.8997 66.6085 23.8997H67.8064V18.0146H61.9299V16.8168C61.9299 15.2891 60.6887 14.0479 59.161 14.0479C57.6333 14.0479 56.392 15.2891 56.392 16.8168V18.0146H50.5156V23.8911H51.7135C53.2412 23.8911 54.4824 25.1323 54.4824 26.66C54.4824 28.1877 53.2412 29.429 51.7135 29.429H50.5156V35.3141H56.392V36.5119C56.392 38.0396 57.6333 39.2809 59.161 39.2809C60.6887 39.2809 61.9299 38.0483 61.9299 36.5119Z" fill="#545454"/>
<path d="M39.1019 34.1176V35.3154H33.2168V41.1918H34.4146C35.9423 41.1918 37.1836 42.4331 37.1836 43.9608C37.1836 45.4885 35.9423 46.7297 34.4146 46.7297H33.2168V52.6062H39.0932V53.804C39.0932 55.3317 40.3345 56.5729 41.8622 56.5729C43.3899 56.5729 44.6311 55.3317 44.6311 53.804V52.6062H50.5162V46.7297H49.3184C47.7907 46.7297 46.5494 45.4885 46.5494 43.9608C46.5494 42.4331 47.7907 41.1918 49.3184 41.1918H50.5162V35.3154H44.6398V34.1176C44.6398 32.5899 43.3985 31.3486 41.8708 31.3486C40.3431 31.3486 39.1019 32.5812 39.1019 34.1176Z" fill="#545454"/>
<path d="M49.3183 46.7278H50.5161V52.6042H56.3925V51.4064C56.3925 49.8787 57.6338 48.6374 59.1615 48.6374C60.6892 48.6374 61.9304 49.8787 61.9304 51.4064V52.6042H67.8068V46.7278H69.0047C70.5324 46.7278 71.7736 45.4865 71.7736 43.9588C71.7736 42.4311 70.5324 41.1899 69.0047 41.1899H67.8068V35.3135H61.9304V36.5113C61.9304 38.039 60.6892 39.2803 59.1615 39.2803C57.6338 39.2803 56.3925 38.039 56.3925 36.5113V35.3135H50.5161V41.1899H49.3183C47.7906 41.1899 46.5493 42.4311 46.5493 43.9588C46.5493 45.4865 47.7819 46.7278 49.3183 46.7278Z" fill="#D9D9D9"/>
<path d="M33.2172 19.6045C32.9742 19.6045 32.7832 19.4135 32.7832 19.1705V18.016C32.7832 17.773 32.9742 17.582 33.2172 17.582H34.6321C34.8751 17.582 35.0661 17.773 35.0661 18.016C35.0661 18.2591 34.8751 18.45 34.6321 18.45H33.6512V19.1705C33.6512 19.4135 33.4602 19.6045 33.2172 19.6045Z" fill="#1C1D21"/>
<path d="M50.5166 35.7494H44.6402C44.3972 35.7494 44.2062 35.5585 44.2062 35.3154V34.1176C44.2062 32.8329 43.1559 31.7826 41.8713 31.7826C40.5866 31.7826 39.5363 32.8329 39.5363 34.1176V35.3154C39.5363 35.5585 39.3453 35.7494 39.1023 35.7494H33.2172C32.9742 35.7494 32.7832 35.5585 32.7832 35.3154V32.7114C32.7832 32.4684 32.9742 32.2774 33.2172 32.2774C33.4602 32.2774 33.6512 32.4684 33.6512 32.7114V34.8814H38.6596V34.1176C38.6596 32.3555 40.1005 30.9146 41.8626 30.9146C43.6246 30.9146 45.0655 32.3555 45.0655 34.1176V34.8814H50.0826V29.439C50.0826 29.196 50.2736 29.005 50.5166 29.005H51.7145C52.9991 29.005 54.0494 27.9547 54.0494 26.6701C54.0494 25.3854 52.9991 24.3351 51.7145 24.3351H50.5166C50.2736 24.3351 50.0826 24.1442 50.0826 23.9011V18.45H45.0742V19.2139C45.0742 20.9759 43.6333 22.4168 41.8713 22.4168C40.1092 22.4168 38.6683 20.9759 38.6683 19.2139V18.45H36.6545C36.4115 18.45 36.2205 18.2591 36.2205 18.016C36.2205 17.773 36.4115 17.582 36.6545 17.582H39.1023C39.3453 17.582 39.5363 17.773 39.5363 18.016V19.2139C39.5363 20.4985 40.5866 21.5488 41.8713 21.5488C43.1559 21.5488 44.2062 20.4985 44.2062 19.2139V18.016C44.2062 17.773 44.3972 17.582 44.6402 17.582H50.5166C50.7597 17.582 50.9506 17.773 50.9506 18.016V23.4584H51.7145C53.4765 23.4584 54.9174 24.8993 54.9174 26.6614C54.9174 28.4235 53.4765 29.8643 51.7145 29.8643H50.9506V35.3154C50.9506 35.5585 50.7597 35.7494 50.5166 35.7494Z" fill="#1C1D21"/>
<path d="M33.2172 29.8742H32.0194C30.2573 29.8742 28.8164 28.4333 28.8164 26.6712C28.8164 24.9092 30.2573 23.4683 32.0194 23.4683H32.7832V21.142C32.7832 20.899 32.9742 20.708 33.2172 20.708C33.4603 20.708 33.6512 20.899 33.6512 21.142V23.9023C33.6512 24.1453 33.4603 24.3363 33.2172 24.3363H32.0194C30.7347 24.3363 29.6844 25.3866 29.6844 26.6712C29.6844 27.9559 30.7347 29.0062 32.0194 29.0062H33.2172C33.4603 29.0062 33.6512 29.1971 33.6512 29.4402C33.6512 29.6745 33.4603 29.8742 33.2172 29.8742Z" fill="#1C1D21"/>
<path d="M67.8157 53.0498H66.4008C66.1578 53.0498 65.9668 52.8588 65.9668 52.6158C65.9668 52.3728 66.1578 52.1818 66.4008 52.1818H67.3816V51.4613C67.3816 51.2183 67.5726 51.0273 67.8157 51.0273C68.0587 51.0273 68.2497 51.2183 68.2497 51.4613V52.6158C68.2497 52.8502 68.05 53.0498 67.8157 53.0498Z" fill="#1C1D21"/>
<path d="M64.3868 53.0492H61.939C61.696 53.0492 61.505 52.8583 61.505 52.6152V51.4174C61.505 50.1327 60.4547 49.0825 59.1701 49.0825C57.8854 49.0825 56.8351 50.1327 56.8351 51.4174V52.6152C56.8351 52.8583 56.6442 53.0492 56.4011 53.0492H50.516C50.273 53.0492 50.082 52.8583 50.082 52.6152V47.1728H49.3182C47.5561 47.1728 46.1152 45.7319 46.1152 43.9699C46.1152 42.2078 47.5561 40.7669 49.3182 40.7669H50.082V35.3158C50.082 35.0728 50.273 34.8818 50.516 34.8818H56.3925C56.6355 34.8818 56.8265 35.0728 56.8265 35.3158V36.5137C56.8265 37.7983 57.8767 38.8486 59.1614 38.8486C60.4461 38.8486 61.4963 37.7983 61.4963 36.5137V35.3158C61.4963 35.0728 61.6873 34.8818 61.9303 34.8818H67.8068C68.0498 34.8818 68.2408 35.0728 68.2408 35.3158V37.9199C68.2408 38.1629 68.0498 38.3539 67.8068 38.3539C67.5637 38.3539 67.3728 38.1629 67.3728 37.9199V35.7498H62.3643V36.5137C62.3643 38.2757 60.9235 39.7166 59.1614 39.7166C57.3993 39.7166 55.9584 38.2757 55.9584 36.5137V35.7498H50.95V41.1923C50.95 41.4353 50.7591 41.6263 50.516 41.6263H49.3182C48.0335 41.6263 46.9832 42.6766 46.9832 43.9612C46.9832 45.2459 48.0335 46.2961 49.3182 46.2961H50.516C50.7591 46.2961 50.95 46.4871 50.95 46.7302V52.1726H55.9584V51.4087C55.9584 49.6467 57.3993 48.2058 59.1614 48.2058C60.9235 48.2058 62.3643 49.6467 62.3643 51.4087V52.1726H64.3781C64.6212 52.1726 64.8121 52.3635 64.8121 52.6066C64.8208 52.8496 64.6212 53.0492 64.3868 53.0492Z" fill="#1C1D21"/>
<path d="M67.8154 49.924C67.5723 49.924 67.3813 49.733 67.3813 49.49V46.7297C67.3813 46.4867 67.5723 46.2957 67.8154 46.2957H69.0132C70.2979 46.2957 71.3481 45.2454 71.3481 43.9608C71.3481 42.6761 70.2979 41.6258 69.0132 41.6258H67.8154C67.5723 41.6258 67.3813 41.4349 67.3813 41.1918C67.3813 40.9488 67.5723 40.7578 67.8154 40.7578H69.0132C70.7753 40.7578 72.2162 42.1987 72.2162 43.9608C72.2162 45.7228 70.7753 47.1637 69.0132 47.1637H68.2494V49.49C68.2494 49.733 68.0497 49.924 67.8154 49.924Z" fill="#1C1D21"/>
<path d="M59.1609 39.7172C57.3989 39.7172 55.958 38.2763 55.958 36.5143V35.7504H50.5155C50.2725 35.7504 50.0815 35.5595 50.0815 35.3164V29.44C50.0815 29.197 50.2725 29.006 50.5155 29.006H51.7134C52.998 29.006 54.0483 27.9557 54.0483 26.6711C54.0483 25.3864 52.998 24.3361 51.7134 24.3361H50.5155C50.2725 24.3361 50.0815 24.1452 50.0815 23.9021V18.017C50.0815 17.774 50.2725 17.583 50.5155 17.583H55.958V16.8192C55.958 15.0571 57.3989 13.6162 59.1609 13.6162C60.923 13.6162 62.3639 15.0571 62.3639 16.8192V17.583H67.8063C68.0493 17.583 68.2403 17.774 68.2403 18.017V23.8934C68.2403 24.1365 68.0493 24.3274 67.8063 24.3274H66.6084C65.3238 24.3274 64.2735 25.3777 64.2735 26.6624C64.2735 27.947 65.3238 28.9973 66.6084 28.9973H67.8063C68.0493 28.9973 68.2403 29.1883 68.2403 29.4313V35.3164C68.2403 35.5595 68.0493 35.7504 67.8063 35.7504H62.3639V36.5143C62.3639 38.285 60.9316 39.7172 59.1609 39.7172ZM50.9496 34.8824H56.392C56.635 34.8824 56.826 35.0734 56.826 35.3164V36.5143C56.826 37.7989 57.8763 38.8492 59.1609 38.8492C60.4456 38.8492 61.4959 37.7989 61.4959 36.5143V35.3164C61.4959 35.0734 61.6868 34.8824 61.9299 34.8824H67.3723V29.874H66.6084C64.8464 29.874 63.4055 28.4331 63.4055 26.6711C63.4055 24.909 64.8464 23.4681 66.6084 23.4681H67.3723V18.451H61.9299C61.6868 18.451 61.4959 18.2601 61.4959 18.017V16.8192C61.4959 15.5345 60.4456 14.4842 59.1609 14.4842C57.8763 14.4842 56.826 15.5345 56.826 16.8192V18.017C56.826 18.2601 56.635 18.451 56.392 18.451H50.9496V23.4594H51.7134C53.4755 23.4594 54.9164 24.9003 54.9164 26.6624C54.9164 28.4244 53.4755 29.8653 51.7134 29.8653H50.9496V34.8824Z" fill="#1C1D21"/>
<path d="M41.8708 57.0151C40.1087 57.0151 38.6678 55.5742 38.6678 53.8121V53.0483H33.2167C32.9737 53.0483 32.7827 52.8573 32.7827 52.6143V46.7379C32.7827 46.4948 32.9737 46.3039 33.2167 46.3039H34.4146C35.6992 46.3039 36.7495 45.2536 36.7495 43.9689C36.7495 42.6843 35.6992 41.634 34.4146 41.634H33.2167C32.9737 41.634 32.7827 41.443 32.7827 41.2V35.3149C32.7827 35.0718 32.9737 34.8809 33.2167 34.8809H38.6591V34.117C38.6591 32.355 40.1 30.9141 41.8621 30.9141C43.6241 30.9141 45.065 32.355 45.065 34.117V34.8809H50.5161C50.7592 34.8809 50.9501 35.0718 50.9501 35.3149V41.1913C50.9501 41.4343 50.7592 41.6253 50.5161 41.6253H49.3183C48.0336 41.6253 46.9833 42.6756 46.9833 43.9602C46.9833 45.2449 48.0336 46.2952 49.3183 46.2952H50.5161C50.7592 46.2952 50.9501 46.4861 50.9501 46.7292V52.6056C50.9501 52.8486 50.7592 53.0396 50.5161 53.0396H45.0737V53.8034C45.0737 55.5742 43.6328 57.0151 41.8708 57.0151ZM33.6507 52.1803H39.0931C39.3362 52.1803 39.5271 52.3712 39.5271 52.6143V53.8121C39.5271 55.0968 40.5774 56.1471 41.8621 56.1471C43.1467 56.1471 44.197 55.0968 44.197 53.8121V52.6143C44.197 52.3712 44.388 52.1803 44.631 52.1803H50.0821V47.1719H49.3183C47.5562 47.1719 46.1153 45.731 46.1153 43.9689C46.1153 42.2069 47.5562 40.766 49.3183 40.766H50.0821V35.7489H44.6397C44.3967 35.7489 44.2057 35.5579 44.2057 35.3149V34.117C44.2057 32.8324 43.1554 31.7821 41.8708 31.7821C40.5861 31.7821 39.5358 32.8324 39.5358 34.117V35.3149C39.5358 35.5579 39.3449 35.7489 39.1018 35.7489H33.6507V40.7573H34.4146C36.1766 40.7573 37.6175 42.1982 37.6175 43.9602C37.6175 45.7223 36.1766 47.1632 34.4146 47.1632H33.6507V52.1803Z" fill="#1C1D21"/>
</g>
<defs>
<clipPath id="clip0_1018_2">
<rect width="43.4004" height="43.4004" fill="white" transform="translate(28.8154 13.6152)"/>
</clipPath>
</defs>
</svg>
