<svg width="20" height="19" viewBox="0 0 20 19" fill="none" xmlns="http://www.w3.org/2000/svg">
<g clip-path="url(#clip0_681_12)">
<path fill-rule="evenodd" clip-rule="evenodd" d="M14.4186 4.64706H12.9853C12.6683 4.64706 12.4118 4.90357 12.4118 5.22059V6.36779C12.4118 6.68424 12.6683 6.94075 12.9853 6.94075H14.6328C15.4449 6.94075 15.9736 7.63396 15.8179 8.46472L15.4959 10.1824C15.355 10.9354 14.6418 11.5297 13.8991 11.5297H12.9853C12.6683 11.5297 12.4118 11.7862 12.4118 12.1026V16.9782C12.4118 17.7698 11.7693 18.4114 10.9777 18.4114C10.9667 18.4122 10.0305 18.4114 9.54384 18.4114C9.22739 18.4114 8.97002 18.1549 8.97002 17.8379C8.97002 17.5214 9.22739 17.2643 9.54384 17.2643H10.6909C11.0079 17.2643 11.2644 17.0078 11.2644 16.6914V11.8164C11.2644 11.0242 11.9063 10.3823 12.6985 10.3823H13.735C14.0335 10.3823 14.339 10.144 14.4186 9.84352L14.7227 8.69815C14.8115 8.36446 14.6219 8.08795 14.2978 8.08795H12.6985C11.9062 8.08795 11.2644 7.44624 11.2644 6.65402V4.93382C11.2644 4.14156 11.9062 3.49989 12.6985 3.49989H14.1318C14.4488 3.49989 14.7053 3.24324 14.7053 2.92622V1.77898C14.7053 1.46268 14.4488 1.20603 14.1318 1.20603H11.8382C10.2543 1.20603 8.96999 2.48962 8.96999 4.07339V6.65398C8.96999 7.44621 8.32842 8.08791 7.53674 8.08791H6.68988C6.36588 8.08791 6.10263 8.36446 6.10263 8.69811V9.84349C6.10263 10.144 6.34458 10.3823 6.64282 10.3823H7.53674C8.32842 10.3823 8.96999 11.0241 8.96999 11.8164V13.2496C8.96999 13.5666 8.71347 13.8234 8.39703 13.8234C8.08001 13.8234 7.8235 13.5666 7.8235 13.2496V12.1026C7.8235 11.7861 7.56642 11.5296 7.24997 11.5296H6.30006C5.55738 11.5296 4.95557 10.9354 4.95557 10.1823V8.46469C4.95557 7.63393 5.61394 6.94071 6.42606 6.94071H7.24993C7.56638 6.94071 7.82346 6.6842 7.82346 6.36775V3.78659C7.82354 1.72761 9.49229 0.0588226 11.5512 0.0588226H14.4186C15.2108 0.0588226 15.8527 0.70053 15.8527 1.49222V3.21295C15.8527 4.00517 15.2108 4.64706 14.4186 4.64706ZM8.39707 14.9705C8.71351 14.9705 8.97002 15.227 8.97002 15.544C8.97002 15.8605 8.71351 16.1179 8.39707 16.1179C8.08005 16.1179 7.82354 15.8605 7.82354 15.544C7.82354 15.227 8.08005 14.9705 8.39707 14.9705Z" fill="#3E3E3E"/>
</g>
<defs>
<clipPath id="clip0_681_12">
<rect width="18.3529" height="18.3529" fill="white" transform="translate(0.940918 0.0588226)"/>
</clipPath>
</defs>
</svg>
