<svg width="20" height="19" viewBox="0 0 20 19" fill="none" xmlns="http://www.w3.org/2000/svg">
<g clip-path="url(#clip0_681_16)">
<path fill-rule="evenodd" clip-rule="evenodd" d="M7.2467 11.5311C7.56272 11.5311 7.81823 11.7872 7.81823 12.1027C7.81823 12.4181 7.56243 12.6739 7.2467 12.6739C6.93126 12.6739 6.67547 12.4181 6.67547 12.1027C6.67547 11.7872 6.93155 11.5311 7.2467 11.5311ZM5.57171 9.89457C5.2101 7.38566 6.95105 5.05914 9.45995 4.69753C11.9689 4.33592 14.2957 6.07687 14.6573 8.58577C15.0189 11.0947 13.2779 13.4215 10.769 13.7831C10.7409 13.7874 10.714 13.7874 10.6862 13.7906L10.771 13.7788C10.4573 13.8238 10.1671 13.6062 10.1215 13.2927C10.0765 12.9793 10.2942 12.6882 10.6076 12.6426L10.6067 12.6406C10.6076 12.6406 10.6082 12.6406 10.609 12.6406C12.4902 12.3696 13.7947 10.6252 13.5237 8.74407C13.2527 6.8626 11.5086 5.55811 9.62714 5.8291C7.74682 6.1001 6.44118 7.84449 6.71246 9.72566C6.71246 9.72652 6.71246 9.7271 6.71304 9.7271L6.71103 9.72796C6.75605 10.0414 6.5384 10.3319 6.22496 10.3772C5.91153 10.4222 5.62046 10.2048 5.57487 9.89141L5.58748 9.97687C5.58347 9.94876 5.57573 9.92238 5.57171 9.89457ZM14.7034 3.7882C14.7034 3.31274 15.0894 2.92676 15.5655 2.92676C16.0363 2.92676 16.418 3.30471 16.4255 3.77501V3.80196C16.418 4.27226 16.0363 4.65021 15.5655 4.65021C15.0894 4.65021 14.7034 4.26423 14.7034 3.7882ZM17.7638 16.8403C16.7664 17.848 15.3825 18.4118 12.9895 18.4118H7.2467C4.85365 18.4118 3.47001 17.848 2.47322 16.8403C1.48904 15.8464 0.941895 14.459 0.941895 12.107V6.36421C0.941895 4.0113 1.48904 2.62479 2.47322 1.63087C3.47001 0.622889 4.85365 0.0588226 7.2467 0.0588226H12.9892C15.3825 0.0588226 16.7661 0.622889 17.7635 1.63087C17.8275 1.69482 17.886 1.76507 17.945 1.83447C18.0661 1.93943 18.1443 2.09313 18.1443 2.26605C18.1443 2.58293 17.8877 2.83958 17.5708 2.83958C17.3976 2.83958 17.2439 2.76101 17.1389 2.63942L17.1315 2.64544C17.0724 2.57518 17.0171 2.50234 16.9517 2.43668C16.0793 1.55459 14.7915 1.20846 12.697 1.20846H7.53662C5.44267 1.20846 4.15739 1.55459 3.28505 2.43668C2.42389 3.30643 2.08895 4.59773 2.08895 6.65585V11.8168C2.08895 13.8757 2.42389 15.1636 3.28505 16.0331C4.15739 16.9149 5.44267 17.2647 7.53662 17.2647H12.6975C14.7921 17.2647 16.0799 16.9149 16.9523 16.0331C17.8134 15.1636 18.1449 13.8757 18.1449 11.8168V6.65613C18.1449 6.15487 18.1243 5.70035 18.0824 5.2854L18.085 5.28482C18.054 4.96852 18.2831 4.68577 18.6 4.65222C18.9175 4.61953 19.2022 4.85009 19.2346 5.16696C19.2355 5.17528 19.2346 5.18302 19.2346 5.19134H19.2361C19.2708 5.55668 19.2948 5.93951 19.2948 6.36421V12.1067C19.2948 14.459 18.7471 15.8464 17.7638 16.8403Z" fill="#3E3E3E"/>
</g>
<defs>
<clipPath id="clip0_681_16">
<rect width="18.3529" height="18.3529" fill="white" transform="translate(0.941895 0.0588226)"/>
</clipPath>
</defs>
</svg>
