<svg width="20" height="19" viewBox="0 0 20 19" fill="none" xmlns="http://www.w3.org/2000/svg">
<g clip-path="url(#clip0_681_8)">
<path fill-rule="evenodd" clip-rule="evenodd" d="M13.8832 11.6725L12.0278 11.3235C11.7118 11.2644 11.5013 10.9433 11.5569 10.6069C11.6126 10.2702 11.9134 10.046 12.2294 10.1051L14.258 10.4864C14.9356 10.6241 15.3833 11.2776 15.2582 11.9619C15.2554 11.9773 15.2505 11.9911 15.2476 12.0063C15.1538 12.3427 14.9967 12.6507 14.7664 12.9156C13.443 14.4369 10.3046 13.9987 7.75703 11.936C5.20912 9.87421 4.21634 6.96899 5.54034 5.44799C5.85521 5.08552 6.27446 4.8369 6.7631 4.69351C6.80411 4.68319 6.84368 4.66857 6.88469 4.66254C6.88469 4.66254 6.88526 4.66168 6.88612 4.66168C7.43815 4.5768 7.98874 4.8802 8.20926 5.41186L8.93162 7.34724C9.03858 7.63343 8.88717 7.95002 8.59295 8.05411C8.29959 8.15849 7.97497 8.0111 7.86801 7.7249L7.20415 5.94582C7.14937 5.82853 7.0166 5.76716 6.89129 5.8096C6.70776 5.89649 6.54774 6.0112 6.41927 6.15917C5.50306 7.21246 6.4316 9.41968 8.4943 11.0887C10.557 12.7576 12.9721 13.2575 13.8881 12.2045C13.9446 12.1391 13.9916 12.0688 14.0337 11.9954C14.0446 11.9748 14.0538 11.9533 14.0578 11.9289C14.0768 11.8096 13.9988 11.6998 13.8832 11.6725ZM2.66151 12.1029C2.66151 12.4198 2.40485 12.6765 2.08798 12.6765C1.7711 12.6765 1.51445 12.4198 1.51445 12.1029C1.51445 11.7861 1.7711 11.5294 2.08798 11.5294C2.40485 11.5294 2.66151 11.7861 2.66151 12.1029ZM10.1174 18.4118C8.6764 18.4118 7.31512 18.0754 6.10211 17.4829C6.08347 17.4749 6.0654 17.4663 6.04791 17.458C6.03042 17.4497 6.01235 17.4419 5.99486 17.433C5.65906 17.2647 5.26275 17.2139 4.87218 17.3203C4.86472 17.3223 4.85698 17.3238 4.84923 17.3258L3.18485 17.7881C3.17883 17.7895 3.17166 17.7895 3.16535 17.7918C2.94569 17.8523 2.70796 17.8566 2.47282 17.7918C1.77827 17.6011 1.3702 16.8839 1.5609 16.1893C1.56492 16.1733 1.56635 16.1612 1.56979 16.1469L2.05615 14.3971H2.08798C2.08798 14.0802 2.34463 13.8235 2.66151 13.8235C2.97838 13.8235 3.23504 14.0802 3.23504 14.3971H3.24679L3.22815 14.4644C3.22127 14.5264 3.20521 14.5846 3.17969 14.6388L2.66495 16.4933C2.66495 16.4945 2.66695 16.4924 2.66695 16.4939C2.64401 16.5773 2.69391 16.6636 2.77736 16.6857C2.80231 16.6926 2.82754 16.6926 2.8502 16.688C2.85163 16.688 2.84962 16.6909 2.8502 16.6909L4.55702 16.2166C4.56046 16.216 4.56276 16.216 4.5662 16.2154C5.2378 16.031 5.91973 16.1145 6.49813 16.4021C6.50387 16.405 6.51046 16.4058 6.51677 16.4079C7.60017 16.9533 8.8215 17.2647 10.1174 17.2647C14.5522 17.2647 18.1468 13.6698 18.1468 9.23529C18.1468 4.80076 14.5522 1.20588 10.1174 1.20588C5.68286 1.20588 2.08798 4.80076 2.08798 9.23529C2.08798 9.40363 2.09629 9.57052 2.10662 9.7357L2.08081 9.73799C2.08368 9.76093 2.08798 9.78445 2.08798 9.80882C2.08798 10.1257 1.83132 10.3824 1.51445 10.3824C1.19757 10.3824 0.940918 10.1257 0.940918 9.80882C0.940918 9.76524 0.946653 9.72251 0.956116 9.68236C0.948374 9.53353 0.940918 9.38527 0.940918 9.23529C0.940918 4.1673 5.0494 0.0588226 10.1174 0.0588226C15.1854 0.0588226 19.2939 4.1673 19.2939 9.23529C19.2939 14.3033 15.1854 18.4118 10.1174 18.4118Z" fill="#3E3E3E"/>
</g>
<defs>
<clipPath id="clip0_681_8">
<rect width="18.3529" height="18.3529" fill="white" transform="translate(0.940918 0.0588226)"/>
</clipPath>
</defs>
</svg>
